<svg xmlns="http://www.w3.org/2000/svg" width="1400" height="900" viewBox="0 0 1400 900" role="img" aria-label="Abstract service desk operations network">
  <defs>
    <linearGradient id="bg" x1="0" x2="1" y1="0" y2="1">
      <stop offset="0" stop-color="#071827"/>
      <stop offset="0.52" stop-color="#0c2f3a"/>
      <stop offset="1" stop-color="#08351f"/>
    </linearGradient>
    <linearGradient id="line" x1="0" x2="1">
      <stop offset="0" stop-color="#38e0bd" stop-opacity="0.12"/>
      <stop offset="1" stop-color="#4ca3ff" stop-opacity="0.32"/>
    </linearGradient>
  </defs>
  <rect width="1400" height="900" fill="url(#bg)"/>
  <g fill="none" stroke="url(#line)" stroke-width="2">
    <path d="M100 160 C260 90 420 220 580 150 S910 110 1080 210 1250 370 1320 260"/>
    <path d="M80 520 C250 410 390 540 560 470 S880 380 1090 500 1240 690 1340 570"/>
    <path d="M180 730 C350 650 530 790 710 690 S1030 610 1220 760"/>
  </g>
  <g opacity="0.5">
    <circle cx="185" cy="145" r="7" fill="#36e6b4"/>
    <circle cx="480" cy="170" r="7" fill="#4ca3ff"/>
    <circle cx="725" cy="120" r="9" fill="#36e6b4"/>
    <circle cx="1040" cy="190" r="8" fill="#4ca3ff"/>
    <circle cx="1195" cy="495" r="8" fill="#36e6b4"/>
    <circle cx="610" cy="475" r="8" fill="#4ca3ff"/>
    <circle cx="335" cy="692" r="8" fill="#36e6b4"/>
    <circle cx="980" cy="650" r="9" fill="#4ca3ff"/>
  </g>
  <g opacity="0.16" stroke="#dffdf7" stroke-width="1">
    <path d="M0 95H1400M0 190H1400M0 285H1400M0 380H1400M0 475H1400M0 570H1400M0 665H1400M0 760H1400M0 855H1400"/>
    <path d="M100 0V900M200 0V900M300 0V900M400 0V900M500 0V900M600 0V900M700 0V900M800 0V900M900 0V900M1000 0V900M1100 0V900M1200 0V900M1300 0V900"/>
  </g>
</svg>
