<svg xmlns="http://www.w3.org/2000/svg" width="1600" height="1000" viewBox="0 0 1600 1000" role="img" aria-labelledby="title desc">
  <title id="title">C# API dashboard visual</title>
  <desc id="desc">A stylized developer dashboard showing API cards, code, and service status.</desc>
  <defs>
    <linearGradient id="bg" x1="0" y1="0" x2="1" y2="1">
      <stop offset="0" stop-color="#112235"/>
      <stop offset="0.52" stop-color="#1f4f5f"/>
      <stop offset="1" stop-color="#5a3f2a"/>
    </linearGradient>
    <linearGradient id="panel" x1="0" y1="0" x2="1" y2="1">
      <stop offset="0" stop-color="#f7fbff" stop-opacity="0.96"/>
      <stop offset="1" stop-color="#e8f2ef" stop-opacity="0.92"/>
    </linearGradient>
  </defs>
  <rect width="1600" height="1000" fill="url(#bg)"/>
  <rect x="130" y="130" width="1340" height="740" rx="34" fill="#0c1723" opacity="0.38"/>
  <rect x="172" y="176" width="1256" height="648" rx="26" fill="url(#panel)"/>
  <rect x="172" y="176" width="1256" height="72" rx="26" fill="#15293d"/>
  <circle cx="226" cy="212" r="11" fill="#ef6f6c"/>
  <circle cx="263" cy="212" r="11" fill="#f0bd51"/>
  <circle cx="300" cy="212" r="11" fill="#5dbb82"/>
  <text x="352" y="220" fill="#dce9f6" font-family="Segoe UI, Arial, sans-serif" font-size="26" font-weight="700">JuniorCSharpPortfolio.Api</text>
  <rect x="222" y="306" width="420" height="470" rx="18" fill="#102235"/>
  <text x="258" y="360" fill="#80d0c7" font-family="Consolas, monospace" font-size="25">app.MapGet("/tasks"</text>
  <text x="258" y="410" fill="#f2ca67" font-family="Consolas, monospace" font-size="25">Results.Ok(summary)</text>
  <text x="258" y="460" fill="#f0f6ff" font-family="Consolas, monospace" font-size="25">record TaskItem(...)</text>
  <text x="258" y="510" fill="#80d0c7" font-family="Consolas, monospace" font-size="25">app.MapPost(...)</text>
  <text x="258" y="560" fill="#ef9a78" font-family="Consolas, monospace" font-size="25">return Created()</text>
  <rect x="258" y="632" width="312" height="22" rx="11" fill="#80d0c7"/>
  <rect x="258" y="682" width="246" height="22" rx="11" fill="#f2ca67"/>
  <rect x="258" y="732" width="348" height="22" rx="11" fill="#dce9f6"/>
  <rect x="710" y="306" width="278" height="174" rx="18" fill="#ffffff"/>
  <rect x="1028" y="306" width="278" height="174" rx="18" fill="#ffffff"/>
  <rect x="710" y="526" width="278" height="174" rx="18" fill="#ffffff"/>
  <rect x="1028" y="526" width="278" height="174" rx="18" fill="#ffffff"/>
  <text x="742" y="362" fill="#18324a" font-family="Segoe UI, Arial, sans-serif" font-size="25" font-weight="700">Task API</text>
  <text x="1060" y="362" fill="#18324a" font-family="Segoe UI, Arial, sans-serif" font-size="25" font-weight="700">Expense API</text>
  <text x="742" y="582" fill="#18324a" font-family="Segoe UI, Arial, sans-serif" font-size="25" font-weight="700">Library API</text>
  <text x="1060" y="582" fill="#18324a" font-family="Segoe UI, Arial, sans-serif" font-size="25" font-weight="700">Job API</text>
  <rect x="742" y="394" width="180" height="16" rx="8" fill="#66a59f"/>
  <rect x="742" y="430" width="124" height="16" rx="8" fill="#e0aa4f"/>
  <rect x="1060" y="394" width="180" height="16" rx="8" fill="#66a59f"/>
  <rect x="1060" y="430" width="124" height="16" rx="8" fill="#b85c4f"/>
  <rect x="742" y="614" width="180" height="16" rx="8" fill="#66a59f"/>
  <rect x="742" y="650" width="124" height="16" rx="8" fill="#e0aa4f"/>
  <rect x="1060" y="614" width="180" height="16" rx="8" fill="#66a59f"/>
  <rect x="1060" y="650" width="124" height="16" rx="8" fill="#b85c4f"/>
  <path d="M708 760 C860 720 1012 812 1308 744" fill="none" stroke="#2f7d75" stroke-width="14" stroke-linecap="round"/>
  <circle cx="710" cy="760" r="15" fill="#f2ca67"/>
  <circle cx="870" cy="740" r="15" fill="#f2ca67"/>
  <circle cx="1038" cy="796" r="15" fill="#f2ca67"/>
  <circle cx="1308" cy="744" r="15" fill="#f2ca67"/>
</svg>
